/* XPM */
static const char *smallxpm[] = {
/* columns rows colors chars-per-pixel */
"48 48 18 1 ",
"  c gray26",
". c gray30",
"X c #646464",
"o c #6F6F6F",
"O c gray48",
"+ c #868686",
"@ c gray57",
"# c #A7A7A7",
"$ c gray70",
"% c gray",
"& c gray79",
"* c gray83",
"= c gray88",
"- c gray92",
"; c #F0EFF1",
": c #F6F6F6",
"> c #F8F8F8",
", c None",
/* pixels */
",,,,,,,,,,,,,,,,,>:::>,,,,>:::>,,,,,,,,,,,,,,,,,",
",,,,,,,,,,,,,,>:::::::,,,,:::::::>,,,,,,,,,,,,,,",
",,,,,,,,,,,,>::::::-:::,,:::=::::::>,,,,,,,,,,,,",
",,,,,,,,,>::::::-#X.-::>>::-.X#-::::::>,,,,,,,,,",
",,,,,,>:::::::%O    @::::::+    O%:::::::>,,,,,,",
",,,,>::::::*@.       *::::&       .@*::::::>,,,,",
",>::::::-#X          o::::X          X#-::::::>,",
",,:::::%              $::#              %:::::,,",
",,,>::::#.            .--.            .#::::>,,,",
",,,,,::::=o            @+            o=::::,,,,,",
",,,,,::::::#.                      .#::::::,,,,,",
",,,,,:::::::=o                    o=:::::::,,,,,",
",,,,,:::::::::#.                .#:::::::::,,,,,",
",,,,,:::                                :::,,,,,",
",,,,,:::                                :::,,,,,",
",,,,,:::                                :::,,,,,",
",,,,,:::                                :::,,,,,",
",,,,,:::    ;;;;;;;;;;    ;;;;;;;;;;    :::,,,,,",
",,,,,:::    ;;;;;;;;;;    ;;;;;;;;;;    :::,,,,,",
",,,,,:::    ;;;;;;;;;;    ;;;;;;;;;;    :::,,,,,",
",,,,,:::    ;;;;;;;;;;    ;;;;;;;;;;    :::,,,,,",
",,,,,:::    ;;;;;;;;;;    ;;;;;;;;;;    :::,,,,,",
",,,,,:::    ;;;;;;;;;;    ;;;;;;;;;;    :::,,,,,",
",,,,,:::    ;;;;;;;;;;    ;;;;;;;;;;    :::,,,,,",
",,,,,:::    ;;;;;;;;;;    ;;;;;;;;;;    :::,,,,,",
",,,,,:::    ;;;;;;;;;;    ;;;;;;;;;;    :::,,,,,",
",,,,,:::    ;;;;;;;;;;    ;;;;;;;;;;    :::,,,,,",
",,,,,:::                                :::,,,,,",
",,,,,:::                                :::,,,,,",
",,,,,:::                                :::,,,,,",
",,,,,:::                                :::,,,,,",
",,,,,:::    ;;;;;;;;;;    ;;;;;;;;;;    :::,,,,,",
",,,,,:::    ;;;;;;;;;;    ;;;;;;;;;;    :::,,,,,",
",,,,,:::    ;;;;;;;;;;    ;;;;;;;;;;    :::,,,,,",
",,,,,:::    ;;;;;;;;;;    ;;;;;;;;;;    :::,,,,,",
",,,,,:::    ;;;;;;;;;;    ;;;;;;;;;;    :::,,,,,",
",,,,,:::    ;;;;;;;;;;    ;;;;;;;;;;    :::,,,,,",
",,,,,:::    ;;;;;;;;;;    ;;;;;;;;;;    :::,,,,,",
",,,,,:::    ;;;;;;;;;;    ;;;;;;;;;;    :::,,,,,",
",,,,,:::    ;;;;;;;;;;    ;;;;;;;;;;    :::,,,,,",
",,,,,:::    ;;;;;;;;;;    ;;;;;;;;;;    :::,,,,,",
",,,,,:::                                :::,,,,,",
",,,,,:::                                :::,,,,,",
",,,,,:::                                :::,,,,,",
",,,,,:::                                :::,,,,,",
",,,,,::::::::::::::::::::::::::::::::::::::,,,,,",
",,,,,::::::::::::::::::::::::::::::::::::::,,,,,",
",,,,,::::::::::::::::::::::::::::::::::::::,,,,,"
};
